#define pause_width 10
#define pause_height 10
static unsigned char pause_bits[] = {
   0x00, 0x00, 0xcc, 0x00, 0xcc, 0x00, 0xcc, 0x00, 0xcc, 0x00, 0xcc, 0x00,
   0xcc, 0x00, 0xcc, 0x00, 0xcc, 0x00, 0x00, 0x00 };
