#define play_width 10
#define play_height 10
static unsigned char play_bits[] = {
   0x00, 0x00, 0x18, 0x00, 0x38, 0x00, 0x78, 0x00, 0xf8, 0x00, 0xf8, 0x00,
   0x78, 0x00, 0x38, 0x00, 0x18, 0x00, 0x00, 0x00 };
